HIERARCHY
ROOT SpineBase
{
  OFFSET 0.000000 0.000000 0.000000
  CHANNELS 6 Xposition Yposition Zposition Zrotation Xrotation Yrotation
  JOINT SpineMid
  {
    OFFSET -0.000000 27.086401 0.000000
    CHANNELS 3 Zrotation Xrotation Yrotation
    JOINT SpineShoulder
    {
      OFFSET -0.023319 20.219683 -0.554836
      CHANNELS 3 Zrotation Xrotation Yrotation
      JOINT Neck
      {
        OFFSET -0.031505 6.709122 -0.471352
        CHANNELS 3 Zrotation Xrotation Yrotation
        JOINT Head
        {
          OFFSET 2.727008 11.742793 -0.309904
          CHANNELS 3 Zrotation Xrotation Yrotation
          End Site
          {
            OFFSET 0 0 0
          }
        }
      }
      JOINT ShoulderLeft
      {
        OFFSET -12.160784 -2.714056 -7.410313
        CHANNELS 3 Zrotation Xrotation Yrotation
        JOINT ElbowLeft
        {
          OFFSET -4.898049 -21.310619 -2.878627
          CHANNELS 3 Zrotation Xrotation Yrotation
          JOINT WristLeft
          {
            OFFSET 1.584541 -18.102537 -5.425481
            CHANNELS 3 Zrotation Xrotation Yrotation
            JOINT HandLeft
            {
              OFFSET 1.213683 -6.836526 -0.914183
              CHANNELS 3 Zrotation Xrotation Yrotation
              JOINT HandTipLeft
              {
                OFFSET 0.328045 -6.321653 -1.016947
                CHANNELS 3 Zrotation Xrotation Yrotation
                End Site
                {
                  OFFSET 0 0 0
                }
              }
              JOINT ThumbLeft
              {
                OFFSET 3.119237 1.193908 -0.050943
                CHANNELS 3 Zrotation Xrotation Yrotation
                End Site
                {
                  OFFSET 0 0 0
                }
              }
            }
          }
        }
      }
      JOINT ShoulderRight
      {
        OFFSET 11.835114 -3.954302 5.623673
        CHANNELS 3 Zrotation Xrotation Yrotation
        JOINT ElbowRight
        {
          OFFSET 2.422322 -22.610147 2.388073
          CHANNELS 3 Zrotation Xrotation Yrotation
          JOINT WristRight
          {
            OFFSET 1.144453 -22.091973 -4.874454
            CHANNELS 3 Zrotation Xrotation Yrotation
            JOINT HandRight
            {
              OFFSET -0.933111 -6.137085 -1.252689
              CHANNELS 3 Zrotation Xrotation Yrotation
              JOINT HandTipRight
              {
                OFFSET 0.440246 -5.860125 -0.200939
                CHANNELS 3 Zrotation Xrotation Yrotation
                End Site
                {
                  OFFSET 0 0 0
                }
              }
              JOINT ThumbRight
              {
                OFFSET 1.778251 -0.270133 -1.774320
                CHANNELS 3 Zrotation Xrotation Yrotation
                End Site
                {
                  OFFSET 0 0 0
                }
              }
            }
          }
        }
      }
    }
  }
  JOINT HipLeft
  {
    OFFSET -5.428501 1.255994 -6.024615
    CHANNELS 3 Zrotation Xrotation Yrotation
    JOINT KneeLeft
    {
      OFFSET -7.259240 -28.210981 0.985115
      CHANNELS 3 Zrotation Xrotation Yrotation
      JOINT AnkleLeft
      {
        OFFSET -4.657393 -31.338967 8.589815
        CHANNELS 3 Zrotation Xrotation Yrotation
        JOINT FootLeft
        {
          OFFSET 3.412089 -7.913938 -0.765137
          CHANNELS 3 Zrotation Xrotation Yrotation
          End Site
          {
            OFFSET 0 0 0
          }
        }
      }
    }
  }
  JOINT HipRight
  {
    OFFSET 5.091767 0.227562 -0.282660
    CHANNELS 3 Zrotation Xrotation Yrotation
    JOINT KneeRight
    {
      OFFSET -4.644757 -28.339034 2.197292
      CHANNELS 3 Zrotation Xrotation Yrotation
      JOINT AnkleRight
      {
        OFFSET -5.509390 -33.533117 7.856943
        CHANNELS 3 Zrotation Xrotation Yrotation
        JOINT FootRight
        {
          OFFSET -0.143875 -4.427513 -8.172406
          CHANNELS 3 Zrotation Xrotation Yrotation
          End Site
          {
            OFFSET 0 0 0
          }
        }
      }
    }
  }
}
MOTION
Frames: 9
Frame Time: 0.033333
20.231166 61.453358 378.924010 -6.337853 -37.008597 -49.652610 -1.082914 0.556744 47.494257 0.120515 1.281566 -0.336142 -33.140238 15.878704 18.174510 0.000000 0.000000 0.000000 -30.238199 20.799346 22.573635 20.036369 -5.927178 -5.225461 -14.669827 2.994784 1.560949 19.381664 -6.953447 -3.705332 0.000000 0.000000 0.000000 0.000000 0.000000 0.000000 -144.565228 36.622045 139.459462 -42.371845 82.097691 148.836347 37.966759 2.007517 -80.292644 -27.662907 -18.163328 -8.182668 0.000000 0.000000 0.000000 0.000000 0.000000 0.000000 -48.737702 62.618613 63.613327 -20.905850 -21.960358 0.026685 -0.500543 18.645038 13.899375 0.000000 0.000000 0.000000 -55.975167 45.327807 67.937212 -18.360718 2.635554 -9.339991 42.555454 -47.208731 4.587123 0.000000 0.000000 0.000000
20.900283 62.964544 380.509310 -5.636526 -38.561422 -46.114461 -0.907460 0.548937 44.096504 0.410149 1.785382 -0.377702 -37.375843 17.075376 20.331661 0.000000 0.000000 0.000000 -27.812300 18.018040 21.476419 17.164154 -1.533508 -5.772963 -10.423895 3.913648 0.578868 14.573676 -3.941961 -2.264521 0.000000 0.000000 0.000000 0.000000 0.000000 0.000000 -145.665184 35.154875 139.461576 -78.634784 83.234290 -158.358203 36.185097 -7.961476 -99.633228 -26.747731 -15.707531 -0.977739 0.000000 0.000000 0.000000 0.000000 0.000000 0.000000 -55.981526 66.444656 66.149615 -19.971035 -28.281156 0.938625 -1.636396 16.559690 12.092456 0.000000 0.000000 0.000000 -60.681222 48.661304 68.690436 -17.765657 0.259111 -9.589767 57.950667 -65.687737 23.276326 0.000000 0.000000 0.000000
21.229488 64.936474 382.069375 -5.729853 -40.358358 -41.702951 -0.906205 0.258979 39.628838 0.557953 2.235612 -0.423650 -37.748497 19.073166 21.525645 0.000000 0.000000 0.000000 -25.123810 17.520462 20.791528 14.102457 1.004425 -5.498726 -9.536221 5.511527 0.803691 13.905641 -4.523434 -2.222614 0.000000 0.000000 0.000000 0.000000 0.000000 0.000000 -142.830113 36.087511 135.448107 -30.630582 68.290866 89.454840 40.976922 32.035793 -48.835216 -30.426913 -14.158177 26.125158 0.000000 0.000000 0.000000 0.000000 0.000000 0.000000 -66.020051 72.405067 72.054039 -20.038447 -34.157500 1.226272 -3.965866 10.600021 9.408046 0.000000 0.000000 0.000000 -60.846874 53.899486 67.406081 -18.157090 -0.401574 -9.723775 73.137620 -72.717744 46.015902 0.000000 0.000000 0.000000
21.839330 66.080684 381.971590 -5.848998 -40.378580 -33.079184 -0.606533 0.452982 30.872103 -0.333238 1.194865 -0.206760 -36.232875 21.000406 21.782745 0.000000 0.000000 0.000000 -20.657894 17.469747 19.044029 9.128446 3.004759 -4.343944 -8.169296 5.846562 0.261273 12.604888 -5.225198 -2.104417 0.000000 0.000000 0.000000 0.000000 0.000000 0.000000 -140.327003 35.552599 132.314090 -26.709079 68.257885 90.696646 37.532749 28.563414 -47.448415 -31.133414 -22.805554 103.571040 0.000000 0.000000 0.000000 0.000000 0.000000 0.000000 -56.505160 80.813817 60.993116 -20.300850 -36.200871 1.046823 -4.151897 11.983996 10.366885 0.000000 0.000000 0.000000 -53.136701 59.959880 58.207893 -17.402835 -0.663199 -9.328975 77.251018 -73.928669 53.758981 0.000000 0.000000 0.000000
22.663122 67.502416 381.852131 -5.132616 -40.599216 -21.969591 -0.328016 0.504377 19.971631 -0.435278 1.096768 -0.156283 -37.446406 20.908954 22.384132 0.000000 0.000000 0.000000 -18.825823 16.014817 18.094032 6.415573 5.458910 -3.676707 -7.902607 6.823117 0.471906 14.139779 -6.858206 -2.681165 0.000000 0.000000 0.000000 0.000000 0.000000 0.000000 -139.523614 37.290875 131.027676 -32.396538 71.157537 98.759096 36.925821 25.319261 -61.633387 -16.551937 -32.633448 108.253883 0.000000 0.000000 0.000000 0.000000 0.000000 0.000000 25.667814 86.142860 -23.570415 -18.983302 -36.932768 1.426285 -2.251743 15.735938 12.590884 0.000000 0.000000 0.000000 -41.417209 65.940252 43.306443 -14.111039 -0.909362 -7.811264 72.910989 -74.259176 48.800734 0.000000 0.000000 0.000000
23.566304 69.044019 381.723805 -4.463063 -41.042471 -12.961007 -0.776814 0.863229 11.380096 -0.671671 1.235419 -0.077176 -36.030059 20.887563 21.719751 0.000000 0.000000 0.000000 -16.919636 14.588472 17.181206 4.386370 7.067184 -3.084477 -8.040516 6.992655 0.487968 16.416767 -11.767298 -3.890179 0.000000 0.000000 0.000000 0.000000 0.000000 0.000000 -135.492450 37.403542 124.424425 -46.122312 71.098880 117.180895 31.893886 20.517499 -79.755392 -10.115718 -29.921426 171.266466 0.000000 0.000000 0.000000 0.000000 0.000000 0.000000 74.595866 81.023607 -74.520241 -17.040294 -36.519589 2.070986 -1.058848 17.159839 13.979041 0.000000 0.000000 0.000000 -29.395688 69.661910 28.288568 -10.304730 -0.846165 -6.098341 59.268248 -71.821759 31.951099 0.000000 0.000000 0.000000
24.097667 70.441177 382.249493 -4.350868 -41.928628 -4.251560 -1.614075 1.449252 3.047153 -0.616859 2.100109 -0.073826 -32.875195 21.028627 20.250831 0.000000 0.000000 0.000000 -14.191719 13.865053 15.818933 1.554447 7.814556 -1.977592 -7.936879 7.985269 0.765045 16.047394 -13.926541 -4.302327 0.000000 0.000000 0.000000 0.000000 0.000000 0.000000 -127.891087 35.530900 111.526544 -55.321444 66.500183 130.645887 20.784789 19.236841 -94.796630 -11.837791 -20.571368 114.394216 0.000000 0.000000 0.000000 0.000000 0.000000 0.000000 89.046242 73.469972 -90.191987 -15.921250 -35.824934 2.431990 -1.257268 15.718285 14.590047 0.000000 0.000000 0.000000 -9.184212 72.841014 6.088591 -8.215160 0.833985 -5.254511 67.532009 -73.874273 33.863728 0.000000 0.000000 0.000000
24.076610 71.332189 381.872406 -5.724645 -41.502715 0.225504 -1.726481 2.027580 -1.835345 -0.845918 1.931066 -0.053635 -28.488933 22.414067 18.412152 0.000000 0.000000 0.000000 -12.749162 13.236217 15.357463 1.903384 7.695754 -2.157749 -8.355364 7.294818 0.598185 15.505149 -12.794622 -4.090405 0.000000 0.000000 0.000000 0.000000 0.000000 0.000000 -116.173945 29.425720 89.694095 -66.791622 56.834761 152.645268 25.855514 34.342714 131.637847 21.753058 3.530309 -131.069805 0.000000 0.000000 0.000000 0.000000 0.000000 0.000000 89.727643 68.194948 -89.888313 -15.436744 -34.314088 2.604512 -9.583037 21.855728 20.254626 0.000000 0.000000 0.000000 8.213020 70.922553 -10.931561 -7.688179 4.791984 -5.152608 85.277057 -75.876151 42.640977 0.000000 0.000000 0.000000
24.126508 70.832064 380.306155 -6.952092 -38.832407 2.738606 -1.773994 1.687382 -4.677260 -1.158488 0.880205 -0.096901 -23.143397 24.824533 15.917595 0.000000 0.000000 0.000000 -13.178283 12.850873 15.672569 4.093537 6.633722 -2.840955 -8.444048 8.082146 1.027418 16.518040 -11.943521 -3.996718 0.000000 0.000000 0.000000 0.000000 0.000000 0.000000 -100.694163 15.528273 54.476692 -79.233123 36.056911 -176.875375 22.408347 3.636638 -8.597202 -30.989879 48.806826 37.429887 0.000000 0.000000 0.000000 0.000000 0.000000 0.000000 83.237286 65.161686 -82.157900 -14.548768 -32.838105 2.962552 -16.766055 28.232197 26.425098 0.000000 0.000000 0.000000 14.039380 64.660176 -16.140744 -7.683834 10.204951 -5.315109 141.368893 -75.760876 90.234682 0.000000 0.000000 0.000000
